<svg width="94" height="96" viewBox="0 0 94 96" fill="none" xmlns="http://www.w3.org/2000/svg">
<g clip-path="url(#clip0_757_817)">
<mask id="mask0_757_817" style="mask-type:luminance" maskUnits="userSpaceOnUse" x="0" y="0" width="86" height="95">
<path d="M85.561 0.649596L0.255249 0.907959L0.539565 94.783L85.8453 94.5247L85.561 0.649596Z" fill="white"/>
</mask>
<g mask="url(#mask0_757_817)">
<path fill-rule="evenodd" clip-rule="evenodd" d="M64.3283 31.7344C64.3112 26.0782 62.0479 20.6605 58.0363 16.6732C54.0247 12.6859 48.5934 10.4554 42.9373 10.4725C37.2811 10.4896 31.8634 12.753 27.8761 16.7646C23.8887 20.7761 21.6583 26.2074 21.6754 31.8635L21.7165 45.4349C21.7337 51.0911 23.9969 56.5087 28.0085 60.4961C32.0201 64.4835 37.4514 66.7139 43.1076 66.6967C48.7637 66.6796 54.1814 64.4164 58.1688 60.4048C62.1561 56.3932 64.3865 50.9619 64.3694 45.3057L64.3283 31.7344Z" fill="#EFEBEA"/>
<path fill-rule="evenodd" clip-rule="evenodd" d="M15.8492 28.5262C13.2783 28.534 10.8157 29.5628 9.00325 31.3863C7.19079 33.2098 6.17695 35.6784 6.18474 38.2494L6.18903 39.6647C6.19681 42.2357 7.22558 44.6983 9.04905 46.5108C10.8725 48.3231 13.3413 49.3369 15.9122 49.3291L15.8492 28.5262Z" stroke="black" stroke-width="3.87755" stroke-linejoin="round"/>
<path fill-rule="evenodd" clip-rule="evenodd" d="M70.1349 28.3618C71.4079 28.358 72.6693 28.605 73.8468 29.0885C75.0243 29.5721 76.0951 30.2829 76.998 31.1804C77.9009 32.0778 78.6182 33.1443 79.109 34.3189C79.5998 35.4935 79.8543 36.7533 79.8581 38.0263L79.8624 39.4416C79.8663 40.7146 79.6194 41.9759 79.1358 43.1535C78.6521 44.3312 77.9413 45.402 77.0438 46.3049C76.1464 47.2078 75.0799 47.9251 73.9053 48.4157C72.7308 48.9064 71.4709 49.1609 70.1979 49.1648L70.1349 28.3618Z" stroke="black" stroke-width="3.87755" stroke-linejoin="round"/>
<path fill-rule="evenodd" clip-rule="evenodd" d="M80.4656 78.6406L56.0437 68.0513C52.1156 70.3236 47.6606 71.5267 43.1225 71.5405C38.5845 71.5542 34.1223 70.3781 30.1805 68.1296L5.82313 78.8667C4.29502 79.6394 2.99892 80.8035 2.06675 82.2401C1.13458 83.6767 0.599602 85.3344 0.516244 87.0448L0.533859 92.8611C0.535417 93.3755 0.741173 93.8679 1.10586 94.2305C1.47055 94.5929 1.96431 94.7956 2.4785 94.794L83.9067 94.5474C84.4209 94.5459 84.9135 94.3402 85.2759 93.9756C85.6383 93.6108 85.8411 93.1171 85.8396 92.6028L85.822 86.7865C85.7282 85.0766 85.1832 83.4221 84.2425 81.9912C83.3015 80.5603 81.9984 79.4041 80.4656 78.6406Z" fill="#EFEBEA"/>
<g style="mix-blend-mode:multiply">
<path d="M43.1374 76.3907C49.5619 76.3713 54.7543 71.1474 54.7348 64.7229C54.7153 58.2984 49.4915 53.1061 43.067 53.1255C36.6425 53.145 31.4501 58.3689 31.4696 64.7934C31.4891 71.2179 36.7129 76.4102 43.1374 76.3907Z" fill="#4CAF50"/>
</g>
<path d="M70.1388 29.7781C70.117 22.5795 67.2364 15.6842 62.1307 10.6094C57.0251 5.53457 50.1125 2.6958 42.9138 2.7176C35.7152 2.7394 28.8199 5.61999 23.7451 10.7256C18.6703 15.8313 15.8315 22.7439 15.8533 29.9425" stroke="black" stroke-width="3.87755" stroke-linejoin="round"/>
<path d="M70.1975 49.1659C70.2445 64.676 54.7343 64.723 54.7343 64.723" stroke="black" stroke-width="3.87755" stroke-linejoin="round"/>
</g>
</g>
<defs>
<clipPath id="clip0_757_817">
<rect width="93.0612" height="95" fill="white" transform="translate(0.255249 0.907959) rotate(-0.173529)"/>
</clipPath>
</defs>
</svg>
