<svg width="92" height="93" viewBox="0 0 92 93" fill="none" xmlns="http://www.w3.org/2000/svg">
<g clip-path="url(#clip0_757_899)">
<path d="M81.9169 33.2547L10.2805 33.4717C8.39221 33.4774 6.86609 35.0137 6.87181 36.9031L7.03101 89.4684C7.03674 91.3578 8.57213 92.8848 10.4604 92.8791L82.0968 92.6621C83.9851 92.6564 85.5113 91.1202 85.5056 89.2307L85.3464 36.6654C85.3407 34.776 83.8052 33.249 81.9169 33.2547Z" fill="#EFEBEA"/>
<g style="mix-blend-mode:multiply">
<path d="M31.8317 51.3066C39.0343 51.2848 44.8555 45.4249 44.8337 38.2179C44.8119 31.0111 38.9553 25.1866 31.7527 25.2084C24.5501 25.2302 18.7288 31.0901 18.7506 38.2969C18.7725 45.5039 24.6291 51.3284 31.8317 51.3066Z" fill="#4CAF50"/>
</g>
<path d="M51.9102 76.3676C51.8942 71.0596 49.7714 65.9753 46.0087 62.2333C42.2463 58.4913 37.1521 56.398 31.8472 56.414C26.5421 56.4301 21.4609 58.5542 17.721 62.319C13.9812 66.0837 11.8892 71.1807 11.9053 76.4887" stroke="black" stroke-width="3.83333" stroke-miterlimit="10"/>
<path d="M77.0152 30.4625L70.8595 25.9539C70.2644 25.5197 69.5465 25.2867 68.8101 25.2889C68.0737 25.2911 67.3572 25.5285 66.7648 25.9663L64.1505 28.0228C61.3231 25.1899 59.153 21.7694 57.7938 18.0041L60.7989 16.5405C61.4876 16.2348 62.0601 15.7161 62.4322 15.0606C62.7514 14.428 62.8569 13.7089 62.7333 13.0111L61.2367 5.57943C61.0956 4.77175 60.6662 4.04284 60.0281 3.52846C59.39 3.01407 58.5869 2.74928 57.7682 2.78343L51.729 2.9861C50.8969 3.02703 50.1067 3.36356 49.5003 3.93518C48.9008 4.50901 48.5317 5.28249 48.4627 6.10979C47.8872 13.6819 49.7762 21.237 53.8476 27.6459C57.9189 34.0548 63.9539 38.9731 71.0505 41.6657L71.5013 41.8077C72.2276 42.0046 72.9989 41.9519 73.6914 41.6577C74.3721 41.3432 74.9263 40.8071 75.2633 40.137L78.011 34.7614C78.3955 34.0538 78.5024 33.2281 78.3111 32.4457C78.136 31.6484 77.675 30.9429 77.0152 30.4625Z" stroke="black" stroke-width="3.83333" stroke-linecap="round" stroke-linejoin="round"/>
<path d="M1.21637 82.6664L91.2993 82.3936" stroke="black" stroke-width="3.83333" stroke-miterlimit="10"/>
</g>
<defs>
<clipPath id="clip0_757_899">
<rect width="90.0833" height="92" fill="white" transform="translate(0.968811 0.908936) rotate(-0.173529)"/>
</clipPath>
</defs>
</svg>
