<svg width="93" height="93" viewBox="0 0 93 93" fill="none" xmlns="http://www.w3.org/2000/svg">
<g clip-path="url(#clip0_757_878)">
<mask id="mask0_757_878" style="mask-type:luminance" maskUnits="userSpaceOnUse" x="0" y="0" width="90" height="83">
<path d="M88.8802 0.633365L0.713928 0.900391L0.960753 82.3967L89.127 82.1297L88.8802 0.633365Z" fill="white"/>
</mask>
<g mask="url(#mask0_757_878)">
<path d="M85.0789 11.2241L4.57929 11.4679C3.56263 11.471 2.58883 11.8778 1.87212 12.5989C1.15542 13.3199 0.754502 14.2962 0.757582 15.3128L0.954948 80.4791L89.1212 80.2121L88.9238 15.0458C88.9208 14.0291 88.514 13.0553 87.7929 12.3386C87.0717 11.6219 86.0955 11.221 85.0789 11.2241ZM54.4588 26.6502L35.5031 26.7076C34.5583 26.7465 33.6307 26.4464 32.8873 25.862C32.1442 25.2774 31.6341 24.4465 31.4492 23.519C31.3548 22.9658 31.3832 22.3983 31.5322 21.857C31.6814 21.3158 31.9474 20.8138 32.3118 20.3868C32.6761 19.9597 33.1298 19.6179 33.6409 19.3855C34.1519 19.153 34.7076 19.0356 35.269 19.0416L54.2248 18.9842C55.1669 18.9446 56.0924 19.2418 56.8351 19.8226C57.5781 20.4035 58.0897 21.2297 58.2786 22.1536C58.3761 22.7083 58.35 23.2779 58.2025 23.8215C58.0549 24.3651 57.7892 24.8696 57.4246 25.2989C57.0598 25.7282 56.6051 26.0719 56.0925 26.3054C55.5799 26.539 55.0222 26.6567 54.4588 26.6502Z" fill="#EFEBEA"/>
<path d="M25.7765 49.0481C29.5662 49.0366 32.6289 45.9553 32.6174 42.1657C32.6059 38.376 29.5246 35.3133 25.735 35.3248C21.9455 35.3363 18.8827 38.4176 18.8942 42.2072C18.9057 45.9968 21.9871 49.0595 25.7765 49.0481Z" stroke="black" stroke-width="3.83333" stroke-miterlimit="10"/>
<path d="M37.3307 66.9148C37.3214 63.8648 36.1011 60.9435 33.9377 58.7934C31.7746 56.6431 28.8459 55.4404 25.7959 55.4497C22.7459 55.4589 19.8245 56.6793 17.6744 58.8426C15.5243 61.0058 14.3216 63.9345 14.3308 66.9844" stroke="black" stroke-width="3.83333" stroke-miterlimit="10"/>
<g style="mix-blend-mode:multiply">
<path d="M45.0967 23.7661C51.4479 23.7469 56.5811 18.5826 56.5618 12.2313C56.5426 5.88007 51.3783 0.74696 45.027 0.766196C38.6758 0.785432 33.5427 5.94972 33.5619 12.301C33.5812 18.6522 38.7455 23.7853 45.0967 23.7661Z" fill="#4CAF50"/>
</g>
<path d="M48.9969 45.8335L77.5168 45.7471" stroke="black" stroke-width="3.83333" stroke-miterlimit="10"/>
<path d="M49.0317 57.3334L67.3741 57.2778" stroke="black" stroke-width="3.83333" stroke-miterlimit="10"/>
<path d="M0.954956 80.4791L89.1212 80.2121" stroke="black" stroke-width="3.83333" stroke-miterlimit="10"/>
</g>
</g>
<defs>
<clipPath id="clip0_757_878">
<rect width="92" height="92" fill="white" transform="translate(0.713928 0.900391) rotate(-0.173529)"/>
</clipPath>
</defs>
</svg>
