<svg width="44" height="44" viewBox="0 0 44 44" fill="none" xmlns="http://www.w3.org/2000/svg">
<path fill-rule="evenodd" clip-rule="evenodd" d="M9.24634 5.58516C10.2588 4.5727 11.632 4.00391 13.0638 4.00391H31.0596C32.4915 4.00391 33.8647 4.5727 34.8771 5.58516C35.8896 6.59762 36.4584 7.97081 36.4584 9.40265V36.3964H38.258C39.2519 36.3964 40.0576 37.2021 40.0576 38.196C40.0576 39.1898 39.2519 39.9955 38.258 39.9955H5.8655C4.87162 39.9955 4.06592 39.1898 4.06592 38.196C4.06592 37.2021 4.87162 36.3964 5.8655 36.3964H7.66508V9.40265C7.66508 7.97082 8.23388 6.59762 9.24634 5.58516ZM11.2642 36.3964H16.663V29.1981C16.663 28.2435 17.0422 27.328 17.7172 26.6531C18.3921 25.9781 19.3076 25.5989 20.2622 25.5989H23.8613C24.8159 25.5989 25.7313 25.9781 26.4063 26.6531C27.0813 27.328 27.4605 28.2435 27.4605 29.1981V36.3964H32.8592V9.40265C32.8592 8.92537 32.6696 8.46764 32.3321 8.13015C31.9947 7.79267 31.5369 7.60307 31.0596 7.60307H13.0638C12.5865 7.60307 12.1288 7.79267 11.7913 8.13015C11.4538 8.46764 11.2642 8.92537 11.2642 9.40265V36.3964ZM23.8613 36.3964V29.1981H20.2622V36.3964H23.8613ZM14.8634 13.0018C14.8634 12.0079 15.6691 11.2022 16.663 11.2022H18.4626C19.4565 11.2022 20.2622 12.0079 20.2622 13.0018C20.2622 13.9957 19.4565 14.8014 18.4626 14.8014H16.663C15.6691 14.8014 14.8634 13.9957 14.8634 13.0018ZM23.8613 13.0018C23.8613 12.0079 24.667 11.2022 25.6609 11.2022H27.4605C28.4544 11.2022 29.2601 12.0079 29.2601 13.0018C29.2601 13.9957 28.4544 14.8014 27.4605 14.8014H25.6609C24.667 14.8014 23.8613 13.9957 23.8613 13.0018ZM14.8634 20.2001C14.8634 19.2063 15.6691 18.4006 16.663 18.4006H18.4626C19.4565 18.4006 20.2622 19.2063 20.2622 20.2001C20.2622 21.194 19.4565 21.9997 18.4626 21.9997H16.663C15.6691 21.9997 14.8634 21.194 14.8634 20.2001ZM23.8613 20.2001C23.8613 19.2063 24.667 18.4006 25.6609 18.4006H27.4605C28.4544 18.4006 29.2601 19.2063 29.2601 20.2001C29.2601 21.194 28.4544 21.9997 27.4605 21.9997H25.6609C24.667 21.9997 23.8613 21.194 23.8613 20.2001Z" fill="white"/>
</svg>
