<svg width="50" height="51" viewBox="0 0 50 51" fill="none" xmlns="http://www.w3.org/2000/svg">
<path d="M41.6675 15.0321H33.3341V10.8654L29.1675 6.69873H20.8341L16.6675 10.8654V15.0321H8.33415C6.04248 15.0321 4.16748 16.9071 4.16748 19.1987V29.6154C4.16748 31.1779 5.00081 32.4904 6.25081 33.2196V40.0321C6.25081 42.3446 8.10498 44.1987 10.4175 44.1987H39.5841C41.8966 44.1987 43.7508 42.3446 43.7508 40.0321V33.1987C44.98 32.4696 45.8341 31.1362 45.8341 29.6154V19.1987C45.8341 16.9071 43.9591 15.0321 41.6675 15.0321ZM20.8341 10.8654H29.1675V15.0321H20.8341V10.8654ZM8.33415 19.1987H41.6675V29.6154H31.2508V23.3654H18.7508V29.6154H8.33415V19.1987ZM27.0841 31.6987H22.9175V27.5321H27.0841V31.6987ZM39.5841 40.0321H10.4175V33.7821H18.7508V35.8654H31.2508V33.7821H39.5841V40.0321Z" fill="#6665B7"/>
</svg>
