<svg width="50" height="51" viewBox="0 0 50 51" fill="none" xmlns="http://www.w3.org/2000/svg">
<path d="M35.4167 31.6984H39.5833V35.8651H35.4167V31.6984ZM35.4167 23.3651H39.5833V27.5317H35.4167V23.3651ZM35.4167 15.0317H39.5833V19.1984H35.4167V15.0317ZM28.625 15.0317L31.25 16.7817V15.0317H28.625Z" fill="#6665B7"/>
<path d="M20.834 6.69873V9.84456L25.0007 12.6154V10.8654H43.7506V40.0321H35.4173V44.1987H47.9173V6.69873H20.834Z" fill="#6665B7"/>
<path d="M17.0205 12.3237L31.2497 21.8029V44.1987H2.08301V22.2821L17.0205 12.3237ZM20.833 40.0321H27.083V23.6987L17.0205 17.3029L6.24967 24.1571V40.0321H12.4997V27.5321H20.833V40.0321Z" fill="#6665B7"/>
</svg>
