<svg width="46" height="47" viewBox="0 0 46 47" fill="none" xmlns="http://www.w3.org/2000/svg">
<circle cx="23" cy="23.4482" r="23" fill="white"/>
<g clip-path="url(#clip0_286_1142)">
<path d="M29.5 15.4482H15.5C14.7044 15.4482 13.9413 15.7643 13.3787 16.3269C12.8161 16.8895 12.5 17.6526 12.5 18.4482V28.4482C12.5 29.2439 12.8161 30.007 13.3787 30.5696C13.9413 31.1322 14.7044 31.4482 15.5 31.4482H29.5C30.2956 31.4482 31.0587 31.1322 31.6213 30.5696C32.1839 30.007 32.5 29.2439 32.5 28.4482V18.4482C32.5 17.6526 32.1839 16.8895 31.6213 16.3269C31.0587 15.7643 30.2956 15.4482 29.5 15.4482ZM29.5 17.4482L23 21.9182C22.848 22.006 22.6755 22.0522 22.5 22.0522C22.3245 22.0522 22.152 22.006 22 21.9182L15.5 17.4482H29.5Z" fill="#3424C2"/>
</g>
<defs>
<clipPath id="clip0_286_1142">
<rect width="24" height="24" fill="white" transform="translate(11 11.4482)"/>
</clipPath>
</defs>
</svg>
