<svg width="50" height="51" viewBox="0 0 50 51" fill="none" xmlns="http://www.w3.org/2000/svg">
<path fill-rule="evenodd" clip-rule="evenodd" d="M10.1633 6.44631C11.3354 5.2742 12.9251 4.61572 14.5827 4.61572H35.416C37.0736 4.61572 38.6633 5.2742 39.8354 6.44631C41.0075 7.61841 41.666 9.20812 41.666 10.8657V42.1157H43.7493C44.8999 42.1157 45.8327 43.0485 45.8327 44.1991C45.8327 45.3496 44.8999 46.2824 43.7493 46.2824H6.24935C5.09876 46.2824 4.16602 45.3496 4.16602 44.1991C4.16602 43.0485 5.09876 42.1157 6.24935 42.1157H8.33268V10.8657C8.33268 9.20812 8.99116 7.61841 10.1633 6.44631ZM12.4993 42.1157H18.7493V33.7824C18.7493 32.6773 19.1883 31.6175 19.9697 30.8361C20.7511 30.0547 21.8109 29.6157 22.916 29.6157H27.0827C28.1878 29.6157 29.2476 30.0547 30.029 30.8361C30.8104 31.6175 31.2493 32.6773 31.2493 33.7824V42.1157H37.4993V10.8657C37.4993 10.3132 37.2799 9.78328 36.8892 9.39258C36.4985 9.00188 35.9685 8.78239 35.416 8.78239H14.5827C14.0301 8.78239 13.5002 9.00188 13.1095 9.39258C12.7188 9.78328 12.4993 10.3132 12.4993 10.8657V42.1157ZM27.0827 42.1157V33.7824H22.916V42.1157H27.0827ZM16.666 15.0324C16.666 13.8818 17.5988 12.9491 18.7493 12.9491H20.8327C21.9833 12.9491 22.916 13.8818 22.916 15.0324C22.916 16.183 21.9833 17.1157 20.8327 17.1157H18.7493C17.5988 17.1157 16.666 16.183 16.666 15.0324ZM27.0827 15.0324C27.0827 13.8818 28.0154 12.9491 29.166 12.9491H31.2493C32.3999 12.9491 33.3327 13.8818 33.3327 15.0324C33.3327 16.183 32.3999 17.1157 31.2493 17.1157H29.166C28.0154 17.1157 27.0827 16.183 27.0827 15.0324ZM16.666 23.3657C16.666 22.2151 17.5988 21.2824 18.7493 21.2824H20.8327C21.9833 21.2824 22.916 22.2151 22.916 23.3657C22.916 24.5163 21.9833 25.4491 20.8327 25.4491H18.7493C17.5988 25.4491 16.666 24.5163 16.666 23.3657ZM27.0827 23.3657C27.0827 22.2151 28.0154 21.2824 29.166 21.2824H31.2493C32.3999 21.2824 33.3327 22.2151 33.3327 23.3657C33.3327 24.5163 32.3999 25.4491 31.2493 25.4491H29.166C28.0154 25.4491 27.0827 24.5163 27.0827 23.3657Z" fill="#6665B7"/>
</svg>
