<svg width="44" height="44" viewBox="0 0 44 44" fill="none" xmlns="http://www.w3.org/2000/svg">
<path d="M36.6168 28.2985C34.3673 28.2985 32.2078 27.9386 30.1923 27.2727C29.8759 27.1719 29.5381 27.1589 29.2148 27.2349C28.8916 27.311 28.595 27.4733 28.3567 27.7046L24.3977 31.6637C19.289 29.0655 15.1366 24.9131 12.5384 19.8045L16.4975 15.8274C16.7358 15.6012 16.9048 15.3118 16.9845 14.9931C17.0641 14.6743 17.0513 14.3395 16.9474 14.0278C16.2647 11.9548 15.9184 9.78582 15.9216 7.60329C15.9216 6.61352 15.1118 5.80371 14.122 5.80371H7.82351C6.83374 5.80371 6.02393 6.61352 6.02393 7.60329C6.02393 24.5014 19.7187 38.1962 36.6168 38.1962C37.6066 38.1962 38.4164 37.3864 38.4164 36.3966V30.0981C38.4164 29.1083 37.6066 28.2985 36.6168 28.2985ZM38.4164 11.2025H33.0177V5.80371H29.4185V11.2025H24.0197V14.8016H29.4185V20.2004H33.0177V14.8016H38.4164V11.2025Z" fill="#23A6F0"/>
</svg>
