<svg width="44" height="44" viewBox="0 0 44 44" fill="none" xmlns="http://www.w3.org/2000/svg">
<path d="M36.5491 19.3003H24.7393C23.6654 19.3003 22.6355 18.8737 21.8762 18.1143C21.1168 17.355 20.6902 16.3251 20.6902 15.2512V3.44143C20.6902 3.35194 20.6547 3.26611 20.5914 3.20283C20.5281 3.13955 20.4423 3.104 20.3528 3.104H12.5921C11.1603 3.104 9.78708 3.6728 8.77462 4.68526C7.76215 5.69772 7.19336 7.07092 7.19336 8.50275V35.4965C7.19336 36.9283 7.76215 38.3015 8.77462 39.314C9.78708 40.3265 11.1603 40.8953 12.5921 40.8953H31.4877C32.9196 40.8953 34.2928 40.3265 35.3052 39.314C36.3177 38.3015 36.8865 36.9283 36.8865 35.4965V19.6377C36.8865 19.5482 36.8509 19.4624 36.7877 19.3991C36.7244 19.3358 36.6386 19.3003 36.5491 19.3003ZM28.7884 32.7971H15.2915C14.9335 32.7971 14.5902 32.6549 14.3371 32.4018C14.084 32.1487 13.9418 31.8054 13.9418 31.4474C13.9418 31.0895 14.084 30.7462 14.3371 30.4931C14.5902 30.24 14.9335 30.0978 15.2915 30.0978H28.7884C29.1463 30.0978 29.4896 30.24 29.7427 30.4931C29.9958 30.7462 30.138 31.0895 30.138 31.4474C30.138 31.8054 29.9958 32.1487 29.7427 32.4018C29.4896 32.6549 29.1463 32.7971 28.7884 32.7971ZM28.7884 26.0487H15.2915C14.9335 26.0487 14.5902 25.9065 14.3371 25.6534C14.084 25.4003 13.9418 25.057 13.9418 24.699C13.9418 24.341 14.084 23.9977 14.3371 23.7446C14.5902 23.4915 14.9335 23.3493 15.2915 23.3493H28.7884C29.1463 23.3493 29.4896 23.4915 29.7427 23.7446C29.9958 23.9977 30.138 24.341 30.138 24.699C30.138 25.057 29.9958 25.4003 29.7427 25.6534C29.4896 25.9065 29.1463 26.0487 28.7884 26.0487Z" fill="#23A6F0"/>
<path d="M35.8085 16.3135L23.6773 4.18236C23.6537 4.15891 23.6237 4.14296 23.5911 4.1365C23.5584 4.13005 23.5246 4.13339 23.4939 4.1461C23.4631 4.15881 23.4369 4.18033 23.4183 4.20794C23.3998 4.23556 23.3898 4.26804 23.3896 4.3013V15.2515C23.3896 15.6094 23.5318 15.9527 23.785 16.2059C24.0381 16.459 24.3814 16.6012 24.7393 16.6012H35.6895C35.7228 16.601 35.7553 16.5911 35.7829 16.5725C35.8105 16.554 35.832 16.5277 35.8447 16.4969C35.8574 16.4662 35.8608 16.4324 35.8543 16.3997C35.8479 16.3671 35.8319 16.3371 35.8085 16.3135Z" fill="#23A6F0"/>
</svg>
