<svg width="55" height="55" viewBox="0 0 55 55" fill="none" xmlns="http://www.w3.org/2000/svg">
<g opacity="0.7" clip-path="url(#clip0_757_664)">
<path d="M10.1072 17.4201C10.1072 16.9605 10.4802 16.5876 10.9397 16.5876C11.3993 16.5876 11.7722 16.9605 11.7722 17.4201C11.7722 17.8796 11.3993 18.2526 10.9397 18.2526C10.4802 18.2526 10.1072 17.8796 10.1072 17.4201ZM44.2397 18.2526C44.6993 18.2526 45.0722 17.8796 45.0722 17.4201C45.0722 16.9605 44.6993 16.5876 44.2397 16.5876C43.7802 16.5876 43.4072 16.9605 43.4072 17.4201C43.4072 17.8796 43.7802 18.2526 44.2397 18.2526ZM10.9397 36.5676C10.4802 36.5676 10.1072 36.9405 10.1072 37.4001C10.1072 37.8596 10.4802 38.2326 10.9397 38.2326C11.3993 38.2326 11.7722 37.8596 11.7722 37.4001C11.7722 36.9405 11.3993 36.5676 10.9397 36.5676ZM43.4072 37.4001C43.4072 37.8596 43.7802 38.2326 44.2397 38.2326C44.6993 38.2326 45.0722 37.8596 45.0722 37.4001C45.0722 36.9405 44.6993 36.5676 44.2397 36.5676C43.7802 36.5676 43.4072 36.9405 43.4072 37.4001ZM27.5897 30.7401C27.1302 30.7401 26.7572 31.113 26.7572 31.5726C26.7572 32.0321 27.1302 32.4051 27.5897 32.4051C28.0493 32.4051 28.4222 32.0321 28.4222 31.5726C28.4222 31.113 28.0493 30.7401 27.5897 30.7401ZM27.5897 4.93258C28.0493 4.93258 28.4222 4.55962 28.4222 4.10008C28.4222 3.64054 28.0493 3.26758 27.5897 3.26758C27.1302 3.26758 26.7572 3.64054 26.7572 4.10008C26.7572 4.55962 27.1302 4.93258 27.5897 4.93258ZM14.2697 51.3195H40.9097V50.1207H14.2697V51.3195ZM51.4542 30.9699C51.3609 31.193 51.1428 31.3395 50.8997 31.3395H48.1691V43.459H50.8997V44.6595H41.5091V46.789H47.5697V47.9895H7.60972V46.7907H13.6703V44.6595H4.27972V43.4607H7.01032V31.3395H4.27972C4.03663 31.3395 3.81851 31.193 3.72527 30.9682C3.63203 30.7434 3.68365 30.487 3.85514 30.3138L7.01032 27.1603V24.0801C7.01032 21.9139 8.77355 20.1507 10.9397 20.1507C13.1059 20.1507 14.8691 21.9139 14.8691 24.0801V26.8107H17.5997C17.8428 26.8107 18.0609 26.9555 18.1542 27.1803C18.2474 27.4034 18.1958 27.6615 18.0243 27.833L15.7166 30.1407H20.3303V24.3282L17.1751 21.173C17.0036 21.0015 16.952 20.7434 17.0453 20.5203C17.1385 20.2972 17.3566 20.1507 17.5997 20.1507H20.3303V17.4201C20.3303 14.2116 22.4349 11.516 25.3253 10.5586V9.09508C25.3253 7.84633 26.341 6.83068 27.5897 6.83068C28.8385 6.83068 29.8541 7.84633 29.8541 9.09508V10.5586C32.7446 11.516 34.8491 14.2133 34.8491 17.4201V20.1507H37.5797C37.8228 20.1507 38.0409 20.2955 38.1342 20.5203C38.2274 20.7434 38.1741 21.0015 38.0043 21.173L34.8491 24.3282V30.1407H39.4628L37.1551 27.8347C36.9836 27.6632 36.932 27.4051 37.0253 27.182C37.1185 26.9572 37.3383 26.8123 37.5797 26.8123H40.3103V24.0801C40.3103 21.9139 42.0735 20.1507 44.2397 20.1507C46.4059 20.1507 48.1691 21.9139 48.1691 24.0801V27.162L51.3243 30.3155C51.4941 30.4887 51.5474 30.7451 51.4542 30.9699ZM41.5091 26.8107H46.9686V24.0801C46.9686 22.5749 45.7449 21.3495 44.238 21.3495C42.7312 21.3495 41.5074 22.5749 41.5074 24.0801L41.5091 26.8107ZM14.8691 34.6695V43.459H17.0003V34.6695H14.8691ZM18.1991 43.4607H20.3303V34.6695H18.1991V43.4607ZM21.5291 34.6695V43.459H23.6603V34.6695H21.5291ZM24.8591 33.4707H30.3203V30.9898L27.5897 28.2576L24.8591 30.9882V33.4707ZM24.8591 34.6695V43.459H30.3203V34.6695H24.8591ZM31.5191 43.4607H33.6486V34.6695H31.5191V43.4607ZM18.1991 44.6595V46.789H20.3303V44.6595H18.1991ZM21.5291 46.7907H23.6603V44.6595H21.5291V46.7907ZM24.8591 46.7907H30.3203V44.6595H24.8591V46.7907ZM31.5191 46.7907H33.6486V44.6595H31.5191V46.7907ZM34.8491 46.7907H36.9786V44.6595H34.8491V46.7907ZM36.9803 43.4607V34.6695H34.8491V43.459L36.9803 43.4607ZM38.1791 43.4607H40.3087V34.6695H38.1791V43.4607ZM42.7928 33.4707L40.6616 31.3411H31.5208V33.4707H42.7928ZM26.5241 10.2689C26.8738 10.2173 27.2251 10.1607 27.5897 10.1607C27.9544 10.1607 28.3057 10.2156 28.6553 10.2689V9.09508C28.6553 8.50733 28.1775 8.02948 27.5897 8.02948C27.002 8.02948 26.5241 8.50733 26.5241 9.09508V10.2689ZM21.5291 17.4201V20.1507H25.3253V15.7551C25.3253 14.5063 26.341 13.4907 27.5897 13.4907C28.8385 13.4907 29.8541 14.5063 29.8541 15.7551V20.1507H33.6486V17.4201C33.6486 14.0784 30.9297 11.3595 27.588 11.3595C24.2481 11.3595 21.5291 14.0784 21.5291 17.4201ZM28.6553 20.1507V15.7551C28.6553 15.1673 28.1775 14.6895 27.5897 14.6895C27.002 14.6895 26.5241 15.1673 26.5241 15.7551V20.1507H28.6553ZM19.0466 21.3495L21.1778 23.4807H34.0016L36.1328 21.3495H34.2497H20.9297H19.0466ZM21.5291 30.1407H24.0116L27.1668 26.9872C27.4016 26.7524 27.7795 26.7524 28.0143 26.9872L31.1695 30.1407H33.6503V24.6795H21.5291V30.1407ZM14.5178 31.3395L12.3866 33.469H23.6603V31.3395H14.5178ZM8.20912 24.0801V26.8107H13.6703V24.0801C13.6703 22.5749 12.4449 21.3495 10.9397 21.3495C9.43456 21.3495 8.20912 22.5749 8.20912 24.0801ZM5.7266 30.1407H14.0216L16.1528 28.0095H7.8578L5.7266 30.1407ZM13.6703 43.4607V34.6695H10.9397C10.6966 34.6695 10.4785 34.523 10.3853 34.2982C10.292 34.0734 10.3436 33.817 10.5151 33.6438L12.8212 31.3378H8.20912V43.4574H13.6703V43.4607ZM14.8691 46.7907H17.0003V44.6595H14.8691V46.7907ZM40.3103 44.6595H38.1791V46.789H40.3087L40.3103 44.6595ZM46.9703 31.3395H42.3566L44.6643 33.6455C44.8358 33.8187 44.8874 34.0751 44.7942 34.2999C44.7009 34.5246 44.4828 34.6695 44.2397 34.6695H41.5091V43.459H46.9686L46.9703 31.3395ZM49.4528 30.1407L47.3216 28.0095H39.0283L41.1595 30.1407H49.4528Z" fill="black"/>
</g>
<defs>
<clipPath id="clip0_757_664">
<rect width="53.28" height="53.28" fill="white" transform="translate(0.949843 0.77002)"/>
</clipPath>
</defs>
</svg>
